<svg width="21" height="21" viewBox="0 0 21 21" fill="none" xmlns="http://www.w3.org/2000/svg">
<path d="M8.833 11.8488L3.583 9.7238C3.40233 9.65447 3.26 9.54314 3.156 9.3898C3.052 9.23714 3 9.0638 3 8.8698C3 8.67514 3.052 8.5048 3.156 8.3588C3.26 8.2128 3.40233 8.10514 3.583 8.0358L16.208 3.3488C16.3887 3.2788 16.559 3.26814 16.719 3.3168C16.8783 3.36547 17.0137 3.44547 17.125 3.5568C17.2363 3.66814 17.3163 3.80347 17.365 3.9628C17.4137 4.1228 17.403 4.29314 17.333 4.4738L12.646 17.1198C12.5627 17.3138 12.4447 17.4561 12.292 17.5468C12.1387 17.6368 11.9787 17.6818 11.812 17.6818C11.6453 17.6818 11.4857 17.6331 11.333 17.5358C11.1803 17.4385 11.0623 17.2998 10.979 17.1198L8.833 11.8488Z" fill="white"/>
</svg>
