<svg width="16" height="17" viewBox="0 0 16 17" fill="none" xmlns="http://www.w3.org/2000/svg">
<path fill-rule="evenodd" clip-rule="evenodd" d="M8.0001 14.6931C11.5347 14.6931 14.4001 11.8277 14.4001 8.29307C14.4001 4.75844 11.5347 1.89307 8.0001 1.89307C4.46548 1.89307 1.6001 4.75844 1.6001 8.29307C1.6001 11.8277 4.46548 14.6931 8.0001 14.6931ZM8.7501 5.09307C8.7501 4.67885 8.41431 4.34307 8.0001 4.34307C7.58588 4.34307 7.2501 4.67885 7.2501 5.09307V8.29307C7.2501 8.49198 7.32912 8.68274 7.46977 8.8234L8.66977 10.0234C8.96266 10.3163 9.43753 10.3163 9.73043 10.0234C10.0233 9.7305 10.0233 9.25563 9.73043 8.96274L8.7501 7.98241V5.09307Z" fill="#B1B6A0"/>
</svg>
