<svg width="20" height="21" viewBox="0 0 20 21" fill="none" xmlns="http://www.w3.org/2000/svg">
<path d="M6.25 3.10547C6.25 2.24214 6.95 1.54297 7.8125 1.54297H8.125C8.9538 1.54297 9.74866 1.87221 10.3347 2.45826C10.9208 3.04431 11.25 3.83917 11.25 4.66797V6.23047C11.25 7.0938 11.95 7.79297 12.8125 7.79297H14.375C15.2038 7.79297 15.9987 8.12221 16.5847 8.70826C17.1708 9.29431 17.5 10.0892 17.5 10.918V13.7305C17.5 14.593 16.8 15.293 15.9375 15.293H7.8125C7.3981 15.293 7.00067 15.1283 6.70765 14.8353C6.41462 14.5423 6.25 14.1449 6.25 13.7305V3.10547Z" fill="white"/>
<path d="M12.5 4.66806C12.5015 3.61685 12.1229 2.60053 11.4342 1.8064C12.8286 2.17303 14.1006 2.90346 15.1201 3.92297C16.1396 4.94248 16.87 6.21449 17.2367 7.6089C16.4425 6.92013 15.4262 6.5416 14.375 6.54306H12.8125C12.7296 6.54306 12.6501 6.51014 12.5915 6.45153C12.5329 6.39293 12.5 6.31344 12.5 6.23056V4.66806ZM4.0625 5.29306H5V13.7306C5 14.4765 5.29632 15.1919 5.82376 15.7193C6.35121 16.2467 7.06658 16.5431 7.8125 16.5431H13.75V17.4806C13.75 18.3431 13.05 19.0431 12.1875 19.0431H4.0625C3.6481 19.0431 3.25067 18.8784 2.95765 18.5854C2.66462 18.2924 2.5 17.895 2.5 17.4806V6.85556C2.5 5.99223 3.2 5.29306 4.0625 5.29306Z" fill="white"/>
</svg>
