<svg width="20" height="20" viewBox="0 0 20 20" fill="none" xmlns="http://www.w3.org/2000/svg">
<path fill-rule="evenodd" clip-rule="evenodd" d="M10 18C14.4183 18 18 14.4183 18 10C18 5.58172 14.4183 2 10 2C5.58172 2 2 5.58172 2 10C2 14.4183 5.58172 18 10 18ZM10.75 6C10.75 5.58579 10.4142 5.25 10 5.25C9.58579 5.25 9.25 5.58579 9.25 6V10C9.25 10.1989 9.32902 10.3897 9.46967 10.5303L10.9697 12.0303C11.2626 12.3232 11.7374 12.3232 12.0303 12.0303C12.3232 11.7374 12.3232 11.2626 12.0303 10.9697L10.75 9.68934V6Z" fill="#848B6C"/>
</svg>
